<svg width="27" height="17" viewBox="0 0 27 17" fill="none" xmlns="http://www.w3.org/2000/svg">
<path d="M11.5 2.00098C18.7 -2.39902 24.5 1.83431 26.5 4.50098C24 2.00098 18.5 -0.499023 11.5 3.30507C5.9 6.34834 4.16667 12.3704 4 15.001C4.59077 14.501 5.91784 13.301 6.5 12.501C7.08216 11.701 8.0759 12.1676 8.5 12.501C8 13.001 6.75446 14.301 5.7723 15.501C4.54461 17.001 2 17.001 2 15.501C2 14.301 0.666666 10.6676 0 9.00098C1.2 9.40098 2.5 12.501 3 14.001C2.83333 11.8343 4.3 6.40098 11.5 2.00098Z" fill="#1C2C40"/>
</svg>
